<svg id="Слой_1" data-name="Слой 1" xmlns="http://www.w3.org/2000/svg" viewBox="0 0 512 512"><path d="M471.38,0H136.62A40.62,40.62,0,0,0,96,40.62V375.38A40.62,40.62,0,0,0,136.62,416H471.38A40.62,40.62,0,0,0,512,375.38V40.62A40.62,40.62,0,0,0,471.38,0Zm-7.11,219.65a22.91,22.91,0,0,1-22.9,22.9h-103v103a22.89,22.89,0,0,1-22.89,22.9h-22.9a22.89,22.89,0,0,1-22.89-22.9v-103h-103a22.91,22.91,0,0,1-22.9-22.9V196.76a22.9,22.9,0,0,1,22.9-22.9h103v-103a22.89,22.89,0,0,1,22.89-22.89h22.9a22.89,22.89,0,0,1,22.89,22.89v103h103a22.9,22.9,0,0,1,22.9,22.9Z"/><path d="M383.32,437H125a50,50,0,0,1-50-50V127.7A37.54,37.54,0,0,0,45.7,96H37.5A37.5,37.5,0,0,0,0,133.5V412A100,100,0,0,0,100,512H378.5A37.5,37.5,0,0,0,416,474.5V468A37.52,37.52,0,0,0,383.32,437Z"/></svg>