<svg id="Слой_1" data-name="Слой 1" xmlns="http://www.w3.org/2000/svg" viewBox="0 0 512 512"><path d="M383.32,437H125a50,50,0,0,1-50-50V127.7A37.54,37.54,0,0,0,45.7,96H37.5A37.5,37.5,0,0,0,0,133.5V412A100,100,0,0,0,100,512H378.5A37.5,37.5,0,0,0,416,474.5V468A37.52,37.52,0,0,0,383.32,437Z"/><path d="M471.38,0H136.62A40.62,40.62,0,0,0,96,40.62V375.38A40.62,40.62,0,0,0,136.62,416H471.38A40.62,40.62,0,0,0,512,375.38V40.62A40.62,40.62,0,0,0,471.38,0ZM377.64,121.69c-.48,10.86-13.11,15.39-13.11,15.39l-39.38,11.77s3.75,115.55-.4,153.91c-.95,8.81-3.93,21.92-12.38,32.17-9.21,11.17-18.32,15.27-27.46,17.86-11.75,3.32-35.46,3.47-51.18,0-6.6-1.46-14-4.8-21.73-16.11s-8.6-18.13-8.6-25.37,0-13.13,6.52-21c4.83-5.81,11.14-12.26,39.2-12.26s41.64,6.82,41.64,6.82l1.37-182.46s1.93-15.78,12.34-19.85,56.44-21.85,56.44-21.85S378.52,58.33,377.64,81C377.64,81,378.11,110.83,377.64,121.69Z"/></svg>