<svg id="Слой_1" data-name="Слой 1" xmlns="http://www.w3.org/2000/svg" viewBox="0 0 512.33 466.35"><defs><style>.cls-1{fill:#1d1d1b;}</style></defs><rect class="cls-1" y="172.33" width="311.86" height="120" rx="50"/><rect class="cls-1" y="344.67" width="182.83" height="120.33" rx="50"/><rect class="cls-1" width="311.86" height="119.67" rx="50"/><path class="cls-1" d="M512,57.85C513.4,22.21,485.65,26,485.65,26s-72.5,28-88.9,34.42-19.42,31.26-19.42,31.26l-2.17,287.4s-21.39-10.75-65.59-10.75-54.13,10.16-61.73,19.3c-10.27,12.36-10.27,21.63-10.27,33s1.43,22.14,13.55,40S274.94,483.7,285.34,486c24.76,5.48,62.11,5.24,80.61,0,14.4-4.08,28.75-10.53,43.25-28.12,13.32-16.16,18-36.81,19.5-50.67,6.54-60.43.64-242.43.64-242.43l62-18.53S511.26,139.12,512,122,512,57.85,512,57.85Z" transform="translate(0 -23.67)"/></svg>