<svg id="Слой_1" data-name="Слой 1" xmlns="http://www.w3.org/2000/svg" viewBox="0 0 511.33 464.15"><defs><style>.cls-1{fill:#1d1d1b;}</style></defs><path class="cls-1" d="M512,258c-.67,21-6.5,57.5-26,86-19.07,27.88-23.07,33.1-51,48.33S377.4,414,352.2,415.67s-158.2,0-158.2,0L192.33,464s1,19.33-12.66,22.33-13.34,4.67-27-5.33-81.34-79.33-81.34-79.33-6.8-8.58-6.65-17c.14-7.45,4.32-15.34,7.32-18s79.33-79.34,79.33-79.34,15-9.05,23-7c9.72,2.48,18.29,5.32,17.89,18.36-.49,16,.11,54,.11,54H351.67s23.08.58,42.33-9.34c11.28-5.81,18.33-12.66,22-15.33s15.31-18.56,18.67-23.33c1.89-2.7,12.66-27,13-46.67S442,220.33,439,215s-5-17.5,4-26c6.21-5.86,39.33-40,52.33-7.33S512.67,237,512,258Z" transform="translate(-0.73 -24.49)"/><path class="cls-1" d="M448.32,129.67c0,5.75-3.29,12.42-8.32,16.66C425,159,360.67,225,360.67,225s-16.17,9.69-24.67,5c-9.67-5.33-15.67-11.33-16-21.67s0-47.66,0-47.66H161s-41.47,4.92-62.33,23c-20,17.33-21.34,23-26.34,36.33-6.25,16.68-8,27.33-7.81,34s1.48,35,8.15,43.33-.34,22.13-9.67,30.9-32,28.44-43.67,4.44S-.11,267.13.93,256C2.09,243.57-2,237.67,4.67,218.33S15.33,186,23.33,174.67s11-18,29-35.67,27.67-22,41-27.67,45.73-13.08,66.42-14.58C188.58,94.67,320,95.33,320,95.33v-47s-.33-15.66,13-20.66,19.67-4.34,28,3.66S440.67,111,440.67,111,448.32,120.31,448.32,129.67Z" transform="translate(-0.73 -24.49)"/><path class="cls-1" d="M317.33,297.17V312c0,12.17-11.33,9.33-11.33,9.33H238.83c-11.5,0-11.16-9.83-11.16-9.83V298.17c0-10.34,10.33-10,10.33-10h15.5l.33-50s-6.76,6.42-12.71,6.08c-4-.23-7.78-6.3-11.37-9.37C220.58,227,231,218.33,231,218.33s15-13.5,21.67-19.83S266,192.33,266,192.33h13.5c11.33,0,10.67,11,10.67,11v84.84h16.16C317.5,288.17,317.33,297.17,317.33,297.17Z" transform="translate(-0.73 -24.49)"/></svg>