<svg id="Слой_1" data-name="Слой 1" xmlns="http://www.w3.org/2000/svg" viewBox="0 0 512 512"><path d="M471.38,0H136.62A40.62,40.62,0,0,0,96,40.62V375.38A40.62,40.62,0,0,0,136.62,416H471.38A40.62,40.62,0,0,0,512,375.38V40.62A40.62,40.62,0,0,0,471.38,0ZM304,54.44a76.78,76.78,0,1,1-76.78,76.78A76.77,76.77,0,0,1,304,54.44ZM438.37,332.77a28.79,28.79,0,0,1-28.79,28.79H198.42a28.79,28.79,0,0,1-28.79-28.79V307.82a80.64,80.64,0,0,1,80.62-80.63h10a104.33,104.33,0,0,0,87.46,0h10a80.64,80.64,0,0,1,80.62,80.63Z"/><path d="M383.32,437H125a50,50,0,0,1-50-50V127.7A37.54,37.54,0,0,0,45.7,96H37.5A37.5,37.5,0,0,0,0,133.5V412A100,100,0,0,0,100,512H378.5A37.5,37.5,0,0,0,416,474.5V468A37.52,37.52,0,0,0,383.32,437Z"/></svg>