<svg fill="#000000" xmlns="http://www.w3.org/2000/svg"  viewBox="0 0 64 64" width="256px" height="256px"><path d="M 32.03125 10.001953 C 29.429868 9.9483062 26.56461 10.353549 23.601562 11.564453 L 23.585938 11.570312 L 23.570312 11.578125 C 23.420869 11.645375 23.199569 11.720108 22.923828 11.865234 C 22.706059 11.953984 22.506491 12.050231 22.386719 12.101562 L 22.373047 12.107422 L 22.359375 12.113281 C 15.740858 15.186539 12.544807 20.772266 11.078125 24.558594 C 10.767005 25.355717 10.430221 26.132714 10.052734 26.859375 L 10.048828 26.865234 L 10.044922 26.873047 C 9.2168161 28.529258 8.2154873 30.089386 7.0605469 31.523438 C 5.6671413 33.222499 4.1073303 35.321329 2.9121094 37.503906 C 1.7159838 39.688136 0.8461562 41.955285 1.0234375 44.109375 C 1.0234375 44.109375 1.0234375 44.111328 1.0234375 44.111328 C 1.0234375 44.111328 1.0234375 44.113281 1.0234375 44.113281 C 1.055003 44.510159 1.1319127 44.907349 1.2539062 45.296875 C 1.2891012 45.568668 1.3415295 45.836562 1.4316406 46.095703 C 2.1092852 48.044659 3.8393038 49.375421 6.0800781 50.126953 C 8.3208525 50.878486 11.136828 51.121633 14.371094 50.945312 C 20.839626 50.592672 28.992958 48.529489 37.261719 44.916016 C 45.53015 41.302686 52.479738 36.771572 57.080078 32.289062 C 59.380248 30.047808 61.100421 27.819591 62.087891 25.664062 C 62.736225 24.248825 63.060716 22.834073 62.976562 21.5 C 63.010692 20.924284 62.971874 20.277266 62.748047 19.601562 C 62.518263 18.86928 62.116523 18.220825 61.609375 17.666016 C 60.15047 16.059539 57.891396 15.154809 55.472656 14.544922 C 53.052926 13.934786 50.444561 13.649075 48.251953 13.511719 C 46.415038 13.39631 44.588954 13.079649 42.810547 12.560547 L 42.806641 12.558594 L 42.804688 12.558594 C 42.003349 12.32964 41.204569 12.050899 40.408203 11.740234 L 40.404297 11.738281 C 38.516819 10.989856 36.010295 10.255389 33.128906 10.052734 C 32.768506 10.027387 32.402876 10.009617 32.03125 10.001953 z M 32.015625 12 C 35.057407 12.065744 37.712446 12.822315 39.671875 13.599609 L 39.673828 13.599609 L 39.675781 13.601562 C 40.518065 13.930259 41.378568 14.231767 42.255859 14.482422 C 44.17559 15.042299 46.145899 15.383349 48.126953 15.507812 C 48.925128 15.557815 49.784852 15.636941 50.658203 15.736328 C 50.43722 15.738802 50.231372 15.730302 50.005859 15.736328 C 43.642876 15.906357 35.508479 17.509854 27.212891 21.134766 C 18.920945 24.758086 12.130881 29.616961 7.5683594 34.189453 C 7.4658974 34.292139 7.3795159 34.391772 7.2792969 34.494141 C 7.7278397 33.896266 8.1780395 33.315707 8.6132812 32.785156 L 8.6152344 32.78125 L 8.6191406 32.777344 C 9.8642002 31.231395 10.94209 29.551367 11.833984 27.767578 C 12.253297 26.958856 12.614498 26.120906 12.941406 25.283203 L 12.943359 25.28125 C 14.296678 21.787578 17.199689 16.714477 23.201172 13.927734 C 23.449954 13.819516 23.637176 13.722594 23.720703 13.693359 L 23.791016 13.669922 L 23.855469 13.634766 C 23.953309 13.583266 24.130471 13.516488 24.357422 13.416016 L 24.361328 13.414062 C 27.050069 12.315989 29.649795 11.948866 32.015625 12 z M 50.060547 17.734375 C 53.09593 17.653265 55.669573 17.925272 57.525391 18.4375 C 59.381209 18.949728 60.415876 19.732053 60.669922 20.300781 C 61.209383 21.508381 61.105312 23.007622 60.269531 24.832031 C 59.433751 26.65644 57.865377 28.731473 55.685547 30.855469 C 51.325887 35.103461 44.542505 39.552314 36.460938 43.083984 C 28.379697 46.615511 20.394937 48.614859 14.261719 48.949219 C 11.19511 49.116399 8.5943663 48.860189 6.7167969 48.230469 C 4.8392255 47.600751 3.750121 46.669997 3.3222656 45.439453 C 3.0882141 44.766369 3.2894411 43.391155 4.2382812 41.636719 C 5.1871214 39.882283 6.8020575 37.786693 8.9824219 35.601562 C 13.343151 31.231305 19.956618 26.48943 28.013672 22.96875 C 36.067084 19.449662 43.98978 17.896596 50.060547 17.734375 z M 45.183594 26.912109 C 44.485669 26.891024 43.734334 26.925483 42.931641 27.007812 C 39.720867 27.337129 35.70231 28.455525 31.521484 30.283203 C 27.340804 32.110818 23.790135 34.299232 21.367188 36.431641 C 20.155712 37.497845 19.221649 38.545668 18.632812 39.595703 C 18.043978 40.645738 17.774274 41.802576 18.230469 42.845703 C 18.685869 43.88923 19.718094 44.476526 20.888672 44.757812 C 22.059249 45.039099 23.462899 45.065181 25.068359 44.900391 C 28.279279 44.57081 32.297257 43.450691 36.478516 41.623047 C 40.659196 39.795432 44.209864 37.607018 46.632812 35.474609 C 47.844288 34.408405 48.778351 33.360582 49.367188 32.310547 C 49.956023 31.260512 50.225726 30.103674 49.769531 29.060547 C 49.313304 28.017741 48.281922 27.431523 47.111328 27.150391 C 46.526032 27.009824 45.881518 26.933195 45.183594 26.912109 z M 45.126953 28.914062 C 45.717861 28.932263 46.229594 28.994096 46.644531 29.09375 C 47.474407 29.293055 47.819727 29.594087 47.9375 29.863281 C 48.055306 30.132654 48.040368 30.5898 47.623047 31.333984 C 47.205726 32.078168 46.413151 33.003986 45.3125 33.972656 C 43.111198 35.909997 39.700054 38.03263 35.677734 39.791016 C 31.654993 41.549371 27.780361 42.610737 24.863281 42.910156 C 23.404741 43.059866 22.185016 43.011842 21.355469 42.8125 C 20.525921 42.613162 20.182052 42.314395 20.064453 42.044922 L 20.0625 42.044922 C 19.944694 41.775549 19.959632 41.318403 20.376953 40.574219 C 20.794274 39.830035 21.588802 38.902264 22.689453 37.933594 C 24.890755 35.996253 28.301899 33.875573 32.324219 32.117188 C 36.346393 30.358864 40.219742 29.295277 43.136719 28.996094 C 43.865963 28.921298 44.536046 28.895862 45.126953 28.914062 z M 53.501953 39.544922 C 53.249703 39.501922 52.979906 39.555344 52.753906 39.714844 C 52.303906 40.034844 52.196625 40.658375 52.515625 41.109375 L 53.671875 42.740234 C 53.866875 43.016234 54.175281 43.162109 54.488281 43.162109 C 54.688281 43.162109 54.890406 43.103516 55.066406 42.978516 C 55.516406 42.658516 55.623688 42.034984 55.304688 41.583984 L 54.148438 39.951172 C 53.988438 39.725672 53.754203 39.587922 53.501953 39.544922 z M 49.199219 42.160156 C 49.070641 42.179406 48.942469 42.224875 48.824219 42.296875 C 48.353219 42.584875 48.204188 43.199875 48.492188 43.671875 L 49.535156 45.378906 C 49.723156 45.687906 50.053625 45.857422 50.390625 45.857422 C 50.567625 45.857422 50.746156 45.811937 50.910156 45.710938 C 51.381156 45.422937 51.530187 44.807938 51.242188 44.335938 L 50.199219 42.628906 C 49.983219 42.274906 49.584953 42.102406 49.199219 42.160156 z M 45.107422 44.523438 C 44.977906 44.534875 44.849063 44.572219 44.726562 44.636719 C 44.239562 44.896719 44.054453 45.503234 44.314453 45.990234 L 45.253906 47.755859 C 45.434906 48.092859 45.781672 48.283203 46.138672 48.283203 C 46.296672 48.283203 46.456422 48.246969 46.607422 48.167969 C 47.094422 47.907969 47.279531 47.2995 47.019531 46.8125 L 46.080078 45.048828 C 45.884328 44.684328 45.495969 44.489125 45.107422 44.523438 z M 40.878906 46.654297 C 40.748891 46.658922 40.618187 46.689797 40.492188 46.748047 C 39.992187 46.981047 39.776766 47.575172 40.009766 48.076172 L 40.853516 49.888672 C 41.023516 50.251672 41.384719 50.466797 41.761719 50.466797 C 41.901719 50.466797 42.046594 50.435094 42.183594 50.371094 C 42.683594 50.138094 42.899016 49.543969 42.666016 49.042969 L 41.820312 47.230469 C 41.645562 46.856219 41.268953 46.640422 40.878906 46.654297 z M 36.541016 48.5625 C 36.411359 48.560437 36.279594 48.584969 36.152344 48.636719 C 35.639344 48.842719 35.392609 49.4255 35.599609 49.9375 L 36.349609 51.791016 C 36.506609 52.181016 36.879391 52.417969 37.275391 52.417969 C 37.400391 52.417969 37.528391 52.39375 37.650391 52.34375 C 38.163391 52.13775 38.410125 51.554969 38.203125 51.042969 L 37.453125 49.189453 C 37.297875 48.804703 36.929984 48.568688 36.541016 48.5625 z M 32.115234 50.240234 C 31.985625 50.230953 31.853406 50.245063 31.722656 50.289062 C 31.200656 50.469063 30.920609 51.038547 31.099609 51.560547 L 31.748047 53.451172 C 31.890047 53.866172 32.277359 54.128906 32.693359 54.128906 C 32.801359 54.128906 32.911531 54.109219 33.019531 54.074219 C 33.541531 53.894219 33.819625 53.326687 33.640625 52.804688 L 32.992188 50.912109 C 32.857187 50.520609 32.504063 50.268078 32.115234 50.240234 z M 27.607422 51.667969 C 27.478813 51.651406 27.344891 51.658812 27.212891 51.695312 C 26.680891 51.843312 26.370531 52.395734 26.519531 52.927734 L 27.058594 54.853516 C 27.182594 55.294516 27.584484 55.583984 28.021484 55.583984 C 28.110484 55.583984 28.201016 55.571875 28.291016 55.546875 C 28.823016 55.398875 29.133375 54.846453 28.984375 54.314453 L 28.445312 52.388672 C 28.333562 51.989672 27.99325 51.717656 27.607422 51.667969 z"/></svg>